<svg xmlns="http://www.w3.org/2000/svg" width="125" height="59" viewBox="0 0 125 59" fill="none"><script xmlns="" async="false" type="text/javascript" src="chrome-extension://fnjhmkhhmkbjkkabndcnnogagogbneec/in-page.js"/>
<path d="M4.94246 46.2227L0.391235 58.0198H1.96855L3.15154 54.9144H8.44213L9.64155 58.0198H11.2353L6.68408 46.2227H4.94246ZM5.78041 47.9972L7.91636 53.5343H3.67731L5.78041 47.9972Z" fill="#232426"/>
<path d="M13.9336 52.1212C13.9336 49.3281 15.4781 47.4386 17.6633 47.4386C19.1913 47.4386 20.2922 48.3258 20.7194 49.821L22.2145 49.3281C21.5244 47.2907 19.9143 46.042 17.6633 46.042C14.6073 46.042 12.3563 48.523 12.3563 52.1212C12.3563 55.7195 14.6073 58.2005 17.6633 58.2005C19.9143 58.2005 21.5244 56.9518 22.2145 54.9144L20.7194 54.4215C20.2922 55.9167 19.1913 56.8039 17.6633 56.8039C15.4781 56.8039 13.9336 54.9144 13.9336 52.1212Z" fill="#232426"/>
<path d="M28.5355 46.2227L23.9843 58.0198H25.5616L26.7446 54.9144H32.0352L33.2346 58.0198H34.8283L30.2771 46.2227H28.5355ZM29.3734 47.9972L31.5094 53.5343H27.2703L29.3734 47.9972Z" fill="#232426"/>
<path d="M37.0887 58.0198H40.8348C44.4166 58.0198 46.684 55.7195 46.684 52.1212C46.684 48.523 44.4166 46.2227 40.8348 46.2227H37.0887V58.0198ZM38.6331 56.656V47.5864H40.8184C43.5129 47.5864 45.1396 49.3609 45.1396 52.1212C45.1396 54.8651 43.5129 56.656 40.8348 56.656H38.6331Z" fill="#232426"/>
<path d="M49.0456 46.2227V58.0198H56.7515V56.6396H50.6065V52.6142H55.8149V51.234H50.6065V47.6029H56.7515V46.2227H49.0456Z" fill="#232426"/>
<path d="M65.7241 58.0198L69.3388 48.3094V58.0198H70.8011V46.2227H68.7145L65.1162 55.9167L61.5344 46.2227H59.382V58.0198H60.8607V48.3094L64.459 58.0198H65.7241Z" fill="#232426"/>
<path d="M77.8316 51.6283L74.4633 46.2227H72.7546L77.0265 53.0578V58.0198H78.6038V53.0578L82.8757 46.2227H81.1998L77.8316 51.6283Z" fill="#232426"/>
<path d="M70.4365 7.33217C71.0966 7.33531 71.7317 7.08132 72.2051 6.62477C72.6786 6.16823 72.9527 5.54558 72.9686 4.89061C72.9612 4.22641 72.692 3.59149 72.2188 3.1218C71.7455 2.65212 71.1058 2.38501 70.4365 2.37768C69.7765 2.39342 69.1491 2.66546 68.6891 3.13535C68.2291 3.60523 67.9732 4.23547 67.9763 4.89061C67.9818 5.53648 68.2427 6.15437 68.7029 6.61109C69.1631 7.0678 69.7857 7.32677 70.4365 7.33217Z" fill="#232426"/>
<path d="M87.6425 9.67985H93.7494V10.1606C93.4108 10.2199 93.0837 10.3321 92.7805 10.4931C92.2222 10.7523 91.1057 12.0087 90.2484 14.1141C88.7969 17.7727 87.2716 22.0942 85.6706 27.0468L85.0745 28.925C84.8133 29.7739 84.59 30.3279 84.4784 30.6622C84.3667 30.9965 84.2172 31.5111 83.958 32.1384C83.8103 32.6101 83.6203 33.0677 83.3902 33.5057C83.0912 34.0598 82.5329 35.196 82.0863 35.5378C81.3786 36.1294 80.3358 36.7943 79.0338 36.6835C76.5017 36.6835 74.6036 34.8054 74.5658 32.5836C74.5658 31.0679 75.5347 30.0706 76.9862 30.0706C78.0289 30.0706 78.9581 30.6341 78.9581 31.806C78.9581 32.6568 78.1028 33.5433 78.1028 33.9865C78.1028 35.1322 78.7727 35.6768 80.0766 35.6768C81.1174 35.6768 81.969 35.012 82.6068 33.6823C83.464 32.1666 83.5378 30.5045 82.83 28.6564L77.4707 14.5799C76.2406 11.3288 75.3095 10.2602 74.157 10.1456V9.66482H82.6068V10.1456C81.6019 10.2564 81.0814 10.848 81.0814 11.9186C81.0814 12.6942 81.3785 13.8774 81.9368 15.3931L82.9417 18.1258C84.0961 21.0819 85.0234 23.6681 85.5116 25.2946C86.5903 21.9327 87.5933 18.9766 88.5641 16.3904C89.2719 14.4691 89.6069 13.1018 89.6069 12.2886C89.6069 10.848 88.8253 10.1832 87.633 10.1832L87.6425 9.67985Z" fill="#232426"/>
<path d="M28.8559 27.6741C27.7772 27.4863 26.8461 26.5285 26.8461 24.4963V0L20.7033 1.32971V1.84807C21.746 1.73726 22.7849 2.65942 22.7849 4.6183V24.4963C22.7849 26.4177 21.7422 27.5258 20.7033 27.6741C20.6056 27.6912 20.507 27.7031 20.408 27.7098C19.8761 27.7461 19.3434 27.6526 18.8562 27.4375C18.0311 27.0806 17.3423 26.444 16.7594 25.4936L13.9208 20.9861C13.324 20.0369 12.4341 19.3046 11.3836 18.8984C10.3332 18.4922 9.17858 18.434 8.09206 18.7324L11.2941 15.2222C13.7126 12.5628 15.9476 10.8631 18.069 10.1606V9.67984H11.0253V10.1606C12.8496 10.8631 12.738 12.4144 10.6468 14.8559L6.14285 20.064V0L0 1.32971V1.84807C1.04273 1.84807 2.08168 2.88104 2.08168 4.69155V24.4963C2.08168 26.6768 1.0768 27.5258 0 27.6741V28.1549H8.16018V27.6741C6.82034 27.4863 6.15042 26.4552 6.15042 24.4963V20.8396L7.89902 18.9183L12.1343 25.8261C13.1392 27.4901 14.0703 28.1549 15.5596 28.1549H29.7339V27.7793C29.7339 27.7793 29.329 27.7511 28.8559 27.6741Z" fill="#232426"/>
<path d="M45.7668 25.3377V17.074C45.6855 11.6706 43.4032 9.21031 38.1763 9.21031C36.5058 9.19801 34.8798 9.7445 33.5606 10.7616C32.1829 11.7965 31.513 12.9797 31.513 14.347C31.513 15.6767 32.2568 16.674 33.4849 16.674C34.7888 16.674 35.7199 15.9359 35.7199 14.901C35.7199 14.1254 35.1976 13.0529 35.1976 12.3148C35.1976 10.9833 36.2044 9.8376 37.953 9.8376C40.188 9.8376 41.7871 11.5016 41.7871 15.1959V17.4121L39.9268 17.8553C38.9579 18.0431 38.1403 18.2309 37.5064 18.4187C36.8724 18.6066 36.0549 18.862 35.086 19.2301C33.15 19.9701 32.1091 20.6725 31.214 22.0022C30.7756 22.646 30.5422 23.4057 30.5441 24.1827C30.5441 27.2478 32.7034 28.6526 35.7199 28.6526C38.1025 28.6526 40.6402 27.3962 41.7871 25.0316C41.8035 25.7774 41.9837 26.5106 42.3151 27.1802C43.5773 29.7156 47.7577 28.2169 47.7577 28.2169V27.7361C45.9277 28.0197 45.7763 25.8599 45.7668 25.3377ZM41.7927 22.7797C41.7927 23.9986 41.3461 24.9959 40.4529 25.6983C39.5975 26.4008 38.7043 26.7707 37.7732 26.7707C35.9489 26.7707 34.7567 25.5875 34.7567 23.407C34.7567 22.3741 35.3244 21.4125 35.7994 20.8584C36.1754 20.4762 36.6169 20.1633 37.1033 19.9344C37.7354 19.602 38.0495 19.431 38.481 19.232L40.1842 18.6047C41.0395 18.2722 41.56 18.0882 41.7833 17.9774L41.7927 22.7797Z" fill="#232426"/>
<path d="M124.042 9.67984H109.563V0H124.042L121.003 4.83992L124.042 9.67984Z" fill="#232426"/>
<path d="M94.6106 25.8035C92.8094 23.9616 91.8166 21.4867 91.8495 18.9202C91.8299 17.6542 92.0639 16.397 92.5378 15.2215C93.0118 14.046 93.7164 12.9756 94.6106 12.0726C96.4368 10.1494 98.6736 9.18589 101.285 9.18589C103.857 9.18589 106.096 10.1494 107.922 12.0726C108.828 12.9686 109.543 14.0368 110.024 15.2134C110.504 16.39 110.741 17.6508 110.719 18.9202C110.738 20.1945 110.5 21.4597 110.02 22.6416C109.539 23.8236 108.826 24.8985 107.922 25.8035C106.096 27.6816 103.857 28.6526 101.285 28.6526C98.6736 28.6526 96.4368 27.691 94.6106 25.8035ZM104.64 12.3806C103.904 10.9513 102.937 10.1137 101.802 9.8883C99.4987 9.42816 97.4625 11.7777 96.7036 15.5133C96.3798 17.1893 96.3014 18.9029 96.4708 20.6011C96.6373 22.2997 97.113 23.9543 97.875 25.4842C98.6131 26.9154 99.5782 27.7511 100.714 27.9765C103.017 28.4366 105.112 25.9876 105.876 22.2144C106.51 19.0611 106.189 15.2203 104.631 12.3787L104.64 12.3806Z" fill="#232426"/>
<path d="M72.5959 24.4963V9.67984H59.4908V10.125C61.2413 10.3841 62.0739 11.6951 61.2791 13.8211C57.1839 24.8682 57.445 24.3724 57.1839 25.2589C56.9227 24.4081 56.3266 22.3177 55.3596 19.6959C54.3925 17.074 53.7586 15.3349 53.4974 14.5592C52.4925 11.4922 52.8275 10.3466 54.4663 10.1625V9.68172H45.9769V10.1625C47.2429 10.4217 48.3595 11.8622 49.2905 14.4484L50.5944 17.8102C52.027 21.4425 53.7094 26.4496 54.2714 28.1568H57.093C58.0014 25.5274 61.6463 15.0344 62.1345 13.9676C62.6606 12.7524 63.2567 11.8322 63.9228 11.1955C64.2444 10.8528 64.6359 10.582 65.0712 10.4013C65.5065 10.2206 65.9757 10.1341 66.4474 10.1475C66.4474 10.1475 68.4931 10.1475 68.4931 12.1064V13.7685C68.4931 13.7854 68.4931 13.8023 68.4931 13.8192V24.4963C68.4931 26.5623 67.4882 27.5257 66.4455 27.6741V28.1549H74.5621V27.6741C73.4891 27.5257 72.5959 26.566 72.5959 24.4963Z" fill="#232426"/>
</svg>